<svg xmlns="http://www.w3.org/2000/svg" xmlns:xlink="http://www.w3.org/1999/xlink" width="500" zoomAndPan="magnify" viewBox="0 0 375 374.999991" height="500" preserveAspectRatio="xMidYMid meet" version="1.2"><defs><clipPath id="0d01305134"><rect x="0" width="266" y="0" height="375"/></clipPath></defs><g id="0f79d9e822"><g transform="matrix(1,0,0,1,55,0)"><g clip-path="url(#0d01305134)"><g style="fill:#000000;fill-opacity:1;"><g transform="translate(0.584413, 114.282412)"><path style="stroke:none" d="M 68.40625 -60.015625 L 26.0625 -44.5 L 68.40625 -29.109375 L 68.40625 -13.21875 L 7.875 -36.234375 L 7.875 -52.765625 L 68.40625 -75.78125 Z M 68.40625 -60.015625 "/></g></g><g style="fill:#000000;fill-opacity:1;"><g transform="translate(76.739523, 114.282412)"><path style="stroke:none" d="M 25.5625 -40.9375 C 19.03125 -40.9375 13.707031 -43.160156 9.59375 -47.609375 C 5.488281 -52.054688 3.4375 -58.015625 3.4375 -65.484375 C 3.4375 -72.941406 5.488281 -78.894531 9.59375 -83.34375 C 13.707031 -87.789062 19.03125 -90.015625 25.5625 -90.015625 C 32.082031 -90.015625 37.375 -87.789062 41.4375 -83.34375 C 45.507812 -78.894531 47.546875 -72.941406 47.546875 -65.484375 C 47.546875 -58.015625 45.507812 -52.054688 41.4375 -47.609375 C 37.375 -43.160156 32.082031 -40.9375 25.5625 -40.9375 Z M 78.578125 -89 L 93.703125 -89 L 32.921875 0 L 17.796875 0 Z M 25.5625 -51.359375 C 28.4375 -51.359375 30.703125 -52.546875 32.359375 -54.921875 C 34.015625 -57.296875 34.84375 -60.816406 34.84375 -65.484375 C 34.84375 -70.140625 34.015625 -73.65625 32.359375 -76.03125 C 30.703125 -78.40625 28.4375 -79.59375 25.5625 -79.59375 C 22.757812 -79.59375 20.507812 -78.382812 18.8125 -75.96875 C 17.125 -73.550781 16.28125 -70.054688 16.28125 -65.484375 C 16.28125 -60.898438 17.125 -57.398438 18.8125 -54.984375 C 20.507812 -52.566406 22.757812 -51.359375 25.5625 -51.359375 Z M 85.953125 1.015625 C 81.710938 1.015625 77.914062 0.0195312 74.5625 -1.96875 C 71.21875 -3.957031 68.613281 -6.816406 66.75 -10.546875 C 64.882812 -14.273438 63.953125 -18.597656 63.953125 -23.515625 C 63.953125 -28.429688 64.882812 -32.753906 66.75 -36.484375 C 68.613281 -40.210938 71.21875 -43.070312 74.5625 -45.0625 C 77.914062 -47.0625 81.710938 -48.0625 85.953125 -48.0625 C 92.472656 -48.0625 97.785156 -45.832031 101.890625 -41.375 C 106.003906 -36.925781 108.0625 -30.972656 108.0625 -23.515625 C 108.0625 -16.054688 106.003906 -10.101562 101.890625 -5.65625 C 97.785156 -1.207031 92.472656 1.015625 85.953125 1.015625 Z M 85.953125 -9.40625 C 88.828125 -9.40625 91.09375 -10.613281 92.75 -13.03125 C 94.40625 -15.445312 95.234375 -18.941406 95.234375 -23.515625 C 95.234375 -28.097656 94.40625 -31.597656 92.75 -34.015625 C 91.09375 -36.429688 88.828125 -37.640625 85.953125 -37.640625 C 83.148438 -37.640625 80.898438 -36.453125 79.203125 -34.078125 C 77.515625 -31.703125 76.671875 -28.179688 76.671875 -23.515625 C 76.671875 -18.859375 77.515625 -15.34375 79.203125 -12.96875 C 80.898438 -10.59375 83.148438 -9.40625 85.953125 -9.40625 Z M 85.953125 -9.40625 "/></g></g><g style="fill:#000000;fill-opacity:1;"><g transform="translate(188.238737, 114.282412)"><path style="stroke:none" d="M 7.875 -68.015625 L 68.40625 -68.015625 L 68.40625 -52.515625 L 7.875 -52.515625 Z M 7.875 -36.484375 L 68.40625 -36.484375 L 68.40625 -20.984375 L 7.875 -20.984375 Z M 7.875 -36.484375 "/></g></g><g style="fill:#000000;fill-opacity:1;"><g transform="translate(14.887988, 232.2673)"><path style="stroke:none" d="M 79.46875 -16.53125 L 79.46875 0 L 10.546875 0 L 10.546875 -89 L 77.8125 -89 L 77.8125 -72.46875 L 31.015625 -72.46875 L 31.015625 -53.140625 L 72.34375 -53.140625 L 72.34375 -37.125 L 31.015625 -37.125 L 31.015625 -16.53125 Z M 79.46875 -16.53125 "/></g></g><g style="fill:#000000;fill-opacity:1;"><g transform="translate(100.196968, 232.2673)"><path style="stroke:none" d="M 26.953125 1.53125 C 20.929688 1.53125 15.398438 0.40625 10.359375 -1.84375 C 5.316406 -4.09375 1.1875 -7.289062 -2.03125 -11.4375 L 9.40625 -25.171875 C 14.238281 -18.648438 19.75 -15.390625 25.9375 -15.390625 C 34.332031 -15.390625 38.53125 -20.300781 38.53125 -30.125 L 38.53125 -72.46875 L 7.25 -72.46875 L 7.25 -89 L 59 -89 L 59 -31.28125 C 59 -20.34375 56.285156 -12.140625 50.859375 -6.671875 C 45.429688 -1.203125 37.460938 1.53125 26.953125 1.53125 Z M 26.953125 1.53125 "/></g></g><g style="fill:#000000;fill-opacity:1;"><g transform="translate(168.978126, 232.2673)"><path style="stroke:none" d="M 39.796875 1.53125 C 32.765625 1.53125 25.960938 0.578125 19.390625 -1.328125 C 12.816406 -3.242188 7.539062 -5.722656 3.5625 -8.765625 L 10.546875 -24.28125 C 14.367188 -21.488281 18.90625 -19.242188 24.15625 -17.546875 C 29.414062 -15.847656 34.671875 -15 39.921875 -15 C 45.765625 -15 50.085938 -15.867188 52.890625 -17.609375 C 55.691406 -19.347656 57.09375 -21.65625 57.09375 -24.53125 C 57.09375 -26.65625 56.265625 -28.414062 54.609375 -29.8125 C 52.953125 -31.207031 50.832031 -32.328125 48.25 -33.171875 C 45.664062 -34.023438 42.171875 -34.960938 37.765625 -35.984375 C 30.984375 -37.585938 25.429688 -39.195312 21.109375 -40.8125 C 16.785156 -42.425781 13.078125 -45.007812 9.984375 -48.5625 C 6.890625 -52.125 5.34375 -56.875 5.34375 -62.8125 C 5.34375 -67.976562 6.738281 -72.660156 9.53125 -76.859375 C 12.332031 -81.054688 16.550781 -84.382812 22.1875 -86.84375 C 27.820312 -89.300781 34.707031 -90.53125 42.84375 -90.53125 C 48.519531 -90.53125 54.070312 -89.847656 59.5 -88.484375 C 64.925781 -87.128906 69.671875 -85.179688 73.734375 -82.640625 L 67.390625 -67 C 59.160156 -71.664062 50.9375 -74 42.71875 -74 C 36.957031 -74 32.695312 -73.066406 29.9375 -71.203125 C 27.1875 -69.335938 25.8125 -66.878906 25.8125 -63.828125 C 25.8125 -60.773438 27.398438 -58.503906 30.578125 -57.015625 C 33.753906 -55.535156 38.609375 -54.078125 45.140625 -52.640625 C 51.921875 -51.023438 57.472656 -49.410156 61.796875 -47.796875 C 66.117188 -46.191406 69.828125 -43.648438 72.921875 -40.171875 C 76.015625 -36.703125 77.5625 -32 77.5625 -26.0625 C 77.5625 -20.976562 76.140625 -16.335938 73.296875 -12.140625 C 70.453125 -7.941406 66.191406 -4.613281 60.515625 -2.15625 C 54.835938 0.300781 47.929688 1.53125 39.796875 1.53125 Z M 39.796875 1.53125 "/></g></g><g style="fill:#000000;fill-opacity:1;"><g transform="translate(38.65755, 350.252189)"><path style="stroke:none" d="M 25.5625 -40.9375 C 19.03125 -40.9375 13.707031 -43.160156 9.59375 -47.609375 C 5.488281 -52.054688 3.4375 -58.015625 3.4375 -65.484375 C 3.4375 -72.941406 5.488281 -78.894531 9.59375 -83.34375 C 13.707031 -87.789062 19.03125 -90.015625 25.5625 -90.015625 C 32.082031 -90.015625 37.375 -87.789062 41.4375 -83.34375 C 45.507812 -78.894531 47.546875 -72.941406 47.546875 -65.484375 C 47.546875 -58.015625 45.507812 -52.054688 41.4375 -47.609375 C 37.375 -43.160156 32.082031 -40.9375 25.5625 -40.9375 Z M 78.578125 -89 L 93.703125 -89 L 32.921875 0 L 17.796875 0 Z M 25.5625 -51.359375 C 28.4375 -51.359375 30.703125 -52.546875 32.359375 -54.921875 C 34.015625 -57.296875 34.84375 -60.816406 34.84375 -65.484375 C 34.84375 -70.140625 34.015625 -73.65625 32.359375 -76.03125 C 30.703125 -78.40625 28.4375 -79.59375 25.5625 -79.59375 C 22.757812 -79.59375 20.507812 -78.382812 18.8125 -75.96875 C 17.125 -73.550781 16.28125 -70.054688 16.28125 -65.484375 C 16.28125 -60.898438 17.125 -57.398438 18.8125 -54.984375 C 20.507812 -52.566406 22.757812 -51.359375 25.5625 -51.359375 Z M 85.953125 1.015625 C 81.710938 1.015625 77.914062 0.0195312 74.5625 -1.96875 C 71.21875 -3.957031 68.613281 -6.816406 66.75 -10.546875 C 64.882812 -14.273438 63.953125 -18.597656 63.953125 -23.515625 C 63.953125 -28.429688 64.882812 -32.753906 66.75 -36.484375 C 68.613281 -40.210938 71.21875 -43.070312 74.5625 -45.0625 C 77.914062 -47.0625 81.710938 -48.0625 85.953125 -48.0625 C 92.472656 -48.0625 97.785156 -45.832031 101.890625 -41.375 C 106.003906 -36.925781 108.0625 -30.972656 108.0625 -23.515625 C 108.0625 -16.054688 106.003906 -10.101562 101.890625 -5.65625 C 97.785156 -1.207031 92.472656 1.015625 85.953125 1.015625 Z M 85.953125 -9.40625 C 88.828125 -9.40625 91.09375 -10.613281 92.75 -13.03125 C 94.40625 -15.445312 95.234375 -18.941406 95.234375 -23.515625 C 95.234375 -28.097656 94.40625 -31.597656 92.75 -34.015625 C 91.09375 -36.429688 88.828125 -37.640625 85.953125 -37.640625 C 83.148438 -37.640625 80.898438 -36.453125 79.203125 -34.078125 C 77.515625 -31.703125 76.671875 -28.179688 76.671875 -23.515625 C 76.671875 -18.859375 77.515625 -15.34375 79.203125 -12.96875 C 80.898438 -10.59375 83.148438 -9.40625 85.953125 -9.40625 Z M 85.953125 -9.40625 "/></g></g><g style="fill:#000000;fill-opacity:1;"><g transform="translate(150.156764, 350.252189)"><path style="stroke:none" d="M 68.40625 -52.765625 L 68.40625 -36.234375 L 7.875 -13.21875 L 7.875 -29.109375 L 50.21875 -44.5 L 7.875 -60.015625 L 7.875 -75.78125 Z M 68.40625 -52.765625 "/></g></g></g></g></g></svg>