<?xml version="1.0" encoding="UTF-8"?>
<!-- Created with Inkscape (http://www.inkscape.org/) -->
<svg width="512" height="512" version="1.1" viewBox="0 0 512 512" xmlns="http://www.w3.org/2000/svg">
 <g transform="translate(-1000 100)">
  <path d="m1353.5 130.36-99.635 51.302-99.688-51.302v-67.135l99.688-51.303 99.635 51.303z" fill="#3d87cf" stroke="#000" stroke-miterlimit="3.864" stroke-width="16.067"/>
  <path d="m1355.2 61.511-101.46 50.937-100.21-50.521" fill="none" stroke="#000" stroke-miterlimit="3.864" stroke-width="16.067"/>
  <path d="m1213 212.45-99.687 51.302-99.688-51.302v-67.083l99.688-51.354 99.687 51.302z" fill="#f3632e" stroke="#000" stroke-miterlimit="3.864" stroke-width="16.067"/>
  <path d="m1113 186.2v80.834m101.72-123.44-101.51 50.99-100.21-50.573" fill="none" stroke="#000" stroke-miterlimit="3.864" stroke-width="16.067"/>
  <path d="m1491.6 212.86-99.74 51.25-99.635-51.25v-67.188l99.635-51.25 99.687 51.25z" fill="#912697" stroke="#000" stroke-miterlimit="3.864" stroke-width="16.067"/>
  <path d="m1391.6 186.56v76.146m101.67-118.75-101.51 50.989-100.16-50.573" fill="none" stroke="#000" stroke-miterlimit="3.864" stroke-width="16.067"/>
  <path d="m1353.5 214.38-99.635 51.302-99.688-51.302v-67.135l99.688-51.302 99.635 51.302z" fill="#fac705" stroke="#000" stroke-miterlimit="3.864" stroke-width="16.067"/>
  <path d="m1355.2 145.52-101.46 50.99-100.21-50.573m100 42.187v78.49" fill="none" stroke="#000" stroke-miterlimit="3.864" stroke-width="16.067"/>
 </g>
</svg>